<svg viewBox="0 0 295.02 272.2" xmlns="http://www.w3.org/2000/svg" xmlns:xlink="http://www.w3.org/1999/xlink"><linearGradient id="a" gradientUnits="userSpaceOnUse" x1="190.49" x2="198.13" y1="7.43" y2="7.43"><stop offset="0" stop-color="#b20f61"/><stop offset="1" stop-color="#723075"/></linearGradient><linearGradient id="b" gradientUnits="userSpaceOnUse" x1="129.95" x2="143.58" y1="18.07" y2="18.07"><stop offset="0" stop-color="#fecb3e"/><stop offset="1" stop-color="#fea13e"/></linearGradient><linearGradient id="c" x1="95.09" x2="104.84" xlink:href="#a" y1="253.12" y2="253.12"/><linearGradient id="d" gradientUnits="userSpaceOnUse" x1="157.59" x2="171.5" y1="43.23" y2="43.23"><stop offset="0" stop-color="#42b4dd"/><stop offset="1" stop-color="#1857c6"/></linearGradient><linearGradient id="e" x1="0" x2="11.88" xlink:href="#a" y1="145.26" y2="145.26"/><linearGradient id="f" x1="260.08" x2="270.83" xlink:href="#b" y1="211.73" y2="211.73"/><linearGradient id="g" gradientUnits="userSpaceOnUse" x1="207.38" x2="217.76" y1="255.48" y2="255.48"><stop offset="0" stop-color="#079eff"/><stop offset="1" stop-color="#008"/></linearGradient><linearGradient id="h" x1="127.65" x2="186.66" xlink:href="#d" y1="183.62" y2="97.28"/><linearGradient id="i" x1="42.59" x2="131.56" xlink:href="#d" y1="206.85" y2="206.85"/><linearGradient id="j" gradientUnits="userSpaceOnUse" x1="53.76" x2="67.06" y1="79.52" y2="79.52"><stop offset="0" stop-color="#ff7272"/><stop offset="1" stop-color="#df0000"/></linearGradient><linearGradient id="k" x1="73.25" x2="86.56" xlink:href="#j" y1="79.52" y2="79.52"/><linearGradient id="l" x1="92.75" x2="106.05" xlink:href="#j" y1="79.52" y2="79.52"/><linearGradient id="m" x1="112.25" x2="125.55" xlink:href="#j" y1="79.52" y2="79.52"/><linearGradient id="n" x1="131.75" x2="145.05" xlink:href="#j" y1="79.52" y2="79.52"/><linearGradient id="o" x1="151.24" x2="164.54" xlink:href="#j" y1="79.52" y2="79.52"/><linearGradient id="p" x1="170.74" x2="184.04" xlink:href="#j" y1="79.52" y2="79.52"/><linearGradient id="q" x1="190.49" x2="203.79" xlink:href="#j" y1="79.52" y2="79.52"/><linearGradient id="r" x1="209.99" x2="223.29" xlink:href="#j" y1="79.52" y2="79.52"/><linearGradient id="s" x1="-33.12" x2="116.46" xlink:href="#j" y1="160.42" y2="160.42"/><linearGradient id="t" x1="47.22" x2="233.45" xlink:href="#j" y1="241.58" y2="241.58"/><linearGradient id="u" x1="232.52" x2="245.82" xlink:href="#j" y1="102.21" y2="102.21"/><linearGradient id="v" x1="232.52" x2="245.82" xlink:href="#j" y1="121.7" y2="121.7"/><linearGradient id="w" x1="232.52" x2="245.82" xlink:href="#j" y1="141.2" y2="141.2"/><linearGradient id="x" x1="232.52" x2="245.82" xlink:href="#j" y1="160.7" y2="160.7"/><linearGradient id="y" x1="232.51" x2="245.82" xlink:href="#j" y1="180.2" y2="180.2"/><linearGradient id="z" x1="232.52" x2="245.82" xlink:href="#j" y1="199.69" y2="199.69"/><linearGradient id="A" x1="232.52" x2="245.82" xlink:href="#j" y1="219.19" y2="219.19"/><linearGradient id="B" x1="33.91" x2="49.42" xlink:href="#j" y1="240.76" y2="240.76"/><linearGradient id="C" x1="231.41" x2="246.93" xlink:href="#j" y1="240.76" y2="240.76"/><linearGradient id="D" x1="33.91" x2="49.42" xlink:href="#j" y1="79.52" y2="79.52"/><linearGradient id="E" x1="207.71" x2="251.09" xlink:href="#j" y1="89.8" y2="89.8"/><linearGradient id="F" gradientTransform="matrix(-.82204467 .56942301 -.56942301 -.82204467 145.72 292.85)" x1="18.24" x2="35.96" xlink:href="#b" y1="169.19" y2="169.19"/><linearGradient id="G" x1="6.22" x2="31.65" xlink:href="#b" y1="182.94" y2="182.94"/><linearGradient id="H" gradientTransform="matrix(.70710678 -.70710678 .70710678 .70710678 1833.25 -2060.31)" x1="-2670.12" x2="-2644.12" xlink:href="#a" y1="455.5" y2="455.5"/><linearGradient id="I" gradientUnits="userSpaceOnUse" x1="198.78" x2="225.14" y1="42.08" y2="42.08"><stop offset="0" stop-color="#1ab247"/><stop offset="1" stop-color="#1a4247"/></linearGradient><linearGradient id="J" gradientTransform="matrix(.89679553 -.44244522 .44244522 .89679553 1139.36 -1053.86)" gradientUnits="userSpaceOnUse" x1="-1450.36" x2="-1410.76" y1="500.26" y2="500.26"><stop offset="0" stop-color="#ff512f"/><stop offset="1" stop-color="#f09819"/></linearGradient><linearGradient id="K" gradientTransform="translate(1503.14 -462.7)" x1="-1453.06" x2="-1445.45" xlink:href="#J" y1="484.33" y2="484.33"/><linearGradient id="L" gradientTransform="translate(1501.25 -470.81)" x1="-1434.73" x2="-1427.12" xlink:href="#J" y1="484.33" y2="484.33"/><linearGradient id="M" gradientTransform="translate(1499.29 -479.24)" x1="-1415.67" x2="-1408.06" xlink:href="#J" y1="484.33" y2="484.33"/><linearGradient id="N" gradientTransform="translate(1506.33 -480.88)" x1="-1415.67" x2="-1408.06" xlink:href="#J" y1="500.26" y2="500.26"/><linearGradient id="O" gradientTransform="translate(1517.23 -465.99)" x1="-1453.06" x2="-1445.45" xlink:href="#J" y1="516.18" y2="516.18"/><linearGradient id="P" gradientTransform="translate(1515.34 -474.09)" x1="-1434.73" x2="-1427.12" xlink:href="#J" y1="516.18" y2="516.18"/><linearGradient id="Q" gradientTransform="translate(1513.37 -482.52)" x1="-1415.67" x2="-1408.06" xlink:href="#J" y1="516.18" y2="516.18"/><linearGradient id="R" gradientTransform="matrix(.52 -.86 .65 .39 1225.91 -3348.05)" x1="-3507.68" x2="-3488.51" xlink:href="#J" y1="990.2" y2="990.2"/><circle cx="194.31" cy="7.43" fill="url(#a)" r="3.82"/><path d="m136.77 24.88a6.82 6.82 0 1 1 6.81-6.81 6.82 6.82 0 0 1 -6.81 6.81zm0-10.2a3.39 3.39 0 1 0 3.39 3.39 3.39 3.39 0 0 0 -3.39-3.39z" fill="url(#b)"/><g fill="#1f5161"><rect height="20.04" rx="2.56" transform="matrix(-.70710678 -.70710678 .70710678 -.70710678 20.5 114.23)" width="5.77" x="31.02" y="42.85"/><rect height="20.04" rx="2.56" transform="matrix(.70710678 -.70710678 .70710678 .70710678 -27.45 39.46)" width="5.77" x="31.02" y="42.85"/><rect height="20.04" rx="2.56" transform="matrix(0 -1 1 0 173.12 396.88)" width="5.77" x="282.12" y="101.86"/><rect height="20.04" rx="2.56" width="5.77" x="282.12" y="101.86"/><rect height="15.47" rx="1.98" transform="matrix(0 -1 1 0 -186.77 342.17)" width="4.45" x="75.47" y="256.73"/><rect height="15.47" rx="1.98" width="4.45" x="75.47" y="256.73"/></g><circle cx="99.96" cy="253.12" fill="url(#c)" r="4.88"/><circle cx="164.54" cy="43.23" fill="url(#d)" r="6.96"/><circle cx="5.94" cy="145.26" fill="url(#e)" r="5.94"/><circle cx="265.46" cy="211.73" fill="url(#f)" r="5.38"/><path d="m212.57 260.68a5.2 5.2 0 1 1 5.19-5.2 5.2 5.2 0 0 1 -5.19 5.2zm0-7.78a2.59 2.59 0 1 0 2.58 2.58 2.59 2.59 0 0 0 -2.58-2.58z" fill="url(#g)"/><rect fill="url(#h)" height="137.78" rx="18.59" width="168.09" x="63.32" y="85.88"/><path d="m121 114.18a23.47 23.47 0 0 0 -33.18 0l-24.5 24.52v65a20 20 0 0 0 19.94 19.95h123.41a19.92 19.92 0 0 0 15.91-7.93z" fill="#a7d9fc"/><path d="m204 153.78a15.68 15.68 0 0 0 -22.2 0l-68.68 68.68a13.84 13.84 0 0 0 -1.09 1.21h102.55a16.83 16.83 0 0 0 16.83-16.83v-25.64z" fill="#cceffc"/><circle cx="174.15" cy="120.64" fill="#fbd7db" r="13.33"/><rect fill="url(#i)" height="72.93" rx="9.84" width="88.97" x="42.59" y="170.39"/><path d="m73.13 185.37a12.42 12.42 0 0 0 -17.56 0l-13 13v34.41a10.56 10.56 0 0 0 10.56 10.56h65.31a10.56 10.56 0 0 0 8.43-4.2z" fill="#a7d9fc"/><path d="m117.05 206.32a8.33 8.33 0 0 0 -11.76 0l-36.35 36.36c-.2.2-.4.42-.58.64h54.29a8.91 8.91 0 0 0 8.91-8.91v-13.57z" fill="#cceffc"/><circle cx="101.25" cy="188.79" fill="#fbd7db" r="7.06"/><rect fill="url(#j)" height="6.28" rx="3.14" width="13.3" x="53.76" y="76.38"/><rect fill="url(#k)" height="6.28" rx="3.14" width="13.3" x="73.25" y="76.38"/><rect fill="url(#l)" height="6.28" rx="3.14" width="13.3" x="92.75" y="76.38"/><rect fill="url(#m)" height="6.28" rx="3.14" width="13.3" x="112.25" y="76.38"/><rect fill="url(#n)" height="6.28" rx="3.14" width="13.3" x="131.75" y="76.38"/><rect fill="url(#o)" height="6.28" rx="3.14" width="13.3" x="151.24" y="76.38"/><rect fill="url(#p)" height="6.28" rx="3.14" width="13.3" x="170.74" y="76.38"/><rect fill="url(#q)" height="6.28" rx="3.14" width="13.3" x="190.49" y="76.38"/><rect fill="url(#r)" height="6.28" rx="3.14" width="13.3" x="209.99" y="76.38"/><rect fill="url(#s)" height="6.28" rx="3.14" transform="matrix(0 1 -1 0 202.09 118.76)" width="149.58" x="-33.12" y="157.28"/><rect fill="url(#t)" height="6.28" rx="3.14" transform="matrix(-1 0 0 -1 280.67 483.16)" width="186.22" x="47.22" y="238.44"/><rect fill="url(#u)" height="6.28" rx="3.14" transform="matrix(0 1 -1 0 341.38 -136.96)" width="13.3" x="232.52" y="99.07"/><rect fill="url(#v)" height="6.28" rx="3.14" transform="matrix(0 1 -1 0 360.88 -117.46)" width="13.3" x="232.52" y="118.57"/><rect fill="url(#w)" height="6.28" rx="3.14" transform="matrix(0 1 -1 0 380.38 -97.96)" width="13.3" x="232.52" y="138.07"/><rect fill="url(#x)" height="6.28" rx="3.14" transform="matrix(0 1 -1 0 399.87 -78.47)" width="13.3" x="232.52" y="157.56"/><rect fill="url(#y)" height="6.28" rx="3.14" transform="matrix(0 1 -1 0 419.37 -58.97)" width="13.3" x="232.52" y="177.06"/><rect fill="url(#z)" height="6.28" rx="3.14" transform="matrix(0 1 -1 0 438.87 -39.47)" width="13.3" x="232.52" y="196.56"/><rect fill="url(#A)" height="6.28" rx="3.14" transform="matrix(0 1 -1 0 458.36 -19.98)" width="13.3" x="232.52" y="216.05"/><path d="m46.05 233h-8.77a3.37 3.37 0 0 0 -3.37 3.37v8.77a3.37 3.37 0 0 0 3.37 3.38h8.77a3.37 3.37 0 0 0 3.37-3.38v-8.77a3.37 3.37 0 0 0 -3.37-3.37zm-.43 10.18a1.53 1.53 0 0 1 -1.53 1.54h-4.85a1.54 1.54 0 0 1 -1.53-1.54v-4.84a1.54 1.54 0 0 1 1.53-1.54h4.85a1.53 1.53 0 0 1 1.53 1.54z" fill="url(#B)"/><path d="m243.55 233h-8.76a3.37 3.37 0 0 0 -3.38 3.37v8.77a3.38 3.38 0 0 0 3.38 3.38h8.76a3.38 3.38 0 0 0 3.38-3.38v-8.77a3.37 3.37 0 0 0 -3.38-3.37zm-.42 10.18a1.54 1.54 0 0 1 -1.54 1.54h-4.84a1.54 1.54 0 0 1 -1.54-1.54v-4.84a1.54 1.54 0 0 1 1.54-1.54h4.84a1.54 1.54 0 0 1 1.54 1.54z" fill="url(#C)"/><path d="m46.05 71.77h-8.77a3.37 3.37 0 0 0 -3.37 3.37v8.77a3.37 3.37 0 0 0 3.37 3.37h8.77a3.37 3.37 0 0 0 3.37-3.37v-8.77a3.37 3.37 0 0 0 -3.37-3.37zm-.43 10.17a1.53 1.53 0 0 1 -1.53 1.54h-4.85a1.54 1.54 0 0 1 -1.53-1.54v-4.84a1.54 1.54 0 0 1 1.53-1.54h4.85a1.53 1.53 0 0 1 1.53 1.54z" fill="url(#D)"/><path d="m248.92 68.11h-16.22a2.17 2.17 0 0 0 -2.17 2.17v1.44a2.17 2.17 0 0 0 2.17 2.17h8.52l-27.72 27.72v-8.52a2.18 2.18 0 0 0 -2.18-2.17h-1.44a2.17 2.17 0 0 0 -2.17 2.17v16.22a2.18 2.18 0 0 0 2.17 2.18h16.23a2.18 2.18 0 0 0 2.17-2.18v-1.44a2.17 2.17 0 0 0 -2.17-2.17h-8.52l27.72-27.7v8.5a2.17 2.17 0 0 0 2.17 2.17h1.44a2.17 2.17 0 0 0 2.17-2.17v-16.22a2.17 2.17 0 0 0 -2.17-2.17z" fill="url(#E)"/><rect fill="url(#F)" height="6.52" rx="2.43" transform="matrix(-.82204467 -.56942301 .56942301 -.82204467 -46.97 323.71)" width="19.35" x="17.42" y="165.93"/><path d="m6.22 196.8 10-14.4a3.08 3.08 0 0 1 .29-3.06 3 3 0 1 1 4.86 3.36 3.11 3.11 0 0 1 -2.8 1.3l-10 14.41 21.43-10.28 1.61-11.81-6.41-4.44-6.41-4.45-10.45 5.67z" fill="url(#G)"/><path d="m291.07 137-27.32-10.77a1.29 1.29 0 0 0 -1.68 1.68l10.78 27.32a1.3 1.3 0 0 0 2.39.05l3.42-7.58 7.57 7.57a2.68 2.68 0 0 0 3.78 0l1.1-1.11a2.65 2.65 0 0 0 0-3.77l-7.57-7.58 7.59-3.42a1.3 1.3 0 0 0 -.06-2.39z" fill="url(#H)"/><path d="m198.78 27.63v9.69h1.38c0-4.29 2.12-4.84 2.12-4.84h6.42v21s-.63 1.84-5.55 1.84v1.22h17.61v-1.22c-4.92 0-5.55-1.84-5.55-1.84v-21h6.42s2.12.55 2.12 4.84h1.39v-9.69z" fill="url(#I)"/><path d="m103 34.16-35.53 17.52-15.06-30.55 35.51-17.52zm-34.52 14.55 31.52-15.56-13.09-26.57-31.54 15.56z" fill="url(#J)"/><path d="m50.09 17.83h7.61v7.61h-7.61z" fill="url(#K)" transform="matrix(.89679553 -.44244522 .44244522 .89679553 -4.01 26.07)"/><path d="m66.52 9.72h7.61v7.61h-7.61z" fill="url(#L)" transform="matrix(.89679553 -.44244522 .44244522 .89679553 1.27 32.51)"/><path d="m83.61 1.29h7.61v7.61h-7.61z" fill="url(#M)" transform="matrix(.89679553 -.44244522 .44244522 .89679553 6.77 39.2)"/><path d="m90.66 15.57h7.61v7.61h-7.61z" fill="url(#N)" transform="matrix(.89679553 -.44244522 .44244522 .89679553 1.18 43.79)"/><path d="m64.17 46.39h7.61v7.61h-7.61z" fill="url(#O)" transform="matrix(.89679553 -.44244522 .44244522 .89679553 -15.19 35.25)"/><path d="m80.6 38.28h7.61v7.61h-7.61z" fill="url(#P)" transform="matrix(.89679553 -.44244522 .44244522 .89679553 -9.91 41.68)"/><path d="m97.7 29.85h7.61v7.61h-7.61z" fill="url(#Q)" transform="matrix(.89679553 -.44244522 .44244522 .89679553 -4.41 48.38)"/><path d="m69.38 29.6-17.38-.43a1.11 1.11 0 0 0 -.91 1.51l8.44 15.18c.32.59 1.24.26 1.45-.54l1.65-9.32 6.95-4.84c.61-.58.48-1.54-.2-1.56z" fill="url(#R)"/></svg>